<svg width="18" height="14" viewBox="0 0 18 14" fill="none" xmlns="http://www.w3.org/2000/svg">
<path d="M16.7144 5.61608H4.39019L7.33817 2.40652C7.46096 2.2774 7.55891 2.12295 7.62629 1.95218C7.69366 1.78141 7.72913 1.59774 7.73061 1.41188C7.7321 1.22603 7.69957 1.04171 7.63492 0.869694C7.57028 0.697673 7.47482 0.541392 7.35411 0.409968C7.23339 0.278545 7.08985 0.174611 6.93185 0.104232C6.77385 0.0338528 6.60456 -0.00156217 6.43385 5.28493e-05C6.26314 0.00166787 6.09444 0.0402809 5.93759 0.113639C5.78073 0.186997 5.63887 0.293631 5.52027 0.427318L0.377706 6.0262C0.257979 6.15622 0.162988 6.31068 0.098175 6.48073C0.033362 6.65079 0 6.83309 0 7.0172C0 7.20131 0.033362 7.38361 0.098175 7.55367C0.162988 7.72372 0.257979 7.87818 0.377706 8.0082L5.52027 13.6071C5.76275 13.8621 6.0875 14.0031 6.42459 13.9999C6.76169 13.9968 7.08414 13.8496 7.32251 13.59C7.56088 13.3305 7.69609 12.9794 7.69902 12.6124C7.70195 12.2454 7.57236 11.8919 7.33817 11.6279L4.39019 8.41552H16.7144C17.0553 8.41552 17.3823 8.26805 17.6234 8.00555C17.8646 7.74305 18 7.38703 18 7.0158C18 6.64457 17.8646 6.28855 17.6234 6.02605C17.3823 5.76355 17.0553 5.61608 16.7144 5.61608Z" fill="white"/>
</svg>
