<svg width="19" height="14" viewBox="0 0 19 14" fill="none" xmlns="http://www.w3.org/2000/svg">
<path d="M2.26866 8.36824L14.5928 8.39331L11.6383 11.5969C11.5152 11.7257 11.417 11.88 11.3493 12.0506C11.2815 12.2213 11.2457 12.4049 11.2438 12.5907C11.242 12.7766 11.2741 12.9609 11.3384 13.1331C11.4027 13.3052 11.4979 13.4617 11.6183 13.5934C11.7387 13.7251 11.8821 13.8293 12.0399 13.9C12.1978 13.9707 12.367 14.0064 12.5377 14.0052C12.7084 14.0039 12.8772 13.9656 13.0342 13.8926C13.1912 13.8196 13.3333 13.7132 13.4522 13.5798L18.6061 7.99136C18.7261 7.86158 18.8214 7.70731 18.8866 7.53739C18.9517 7.36747 18.9855 7.18524 18.9858 7.00112C18.9862 6.81701 18.9532 6.63464 18.8887 6.46446C18.8243 6.29428 18.7296 6.13962 18.6101 6.00936L13.479 0.400029C13.237 0.144566 12.9126 0.00282119 12.5755 0.00532464C12.2384 0.0078281 11.9156 0.154377 11.6767 0.413411C11.4378 0.672445 11.3019 1.02324 11.2982 1.39023C11.2945 1.75723 11.4234 2.11106 11.6571 2.37553L14.5985 5.59388L2.27435 5.56881C1.93338 5.56811 1.60607 5.71492 1.36443 5.97693C1.1228 6.23893 0.986621 6.59468 0.985866 6.96591C0.985111 7.33714 1.11984 7.69344 1.36041 7.95643C1.60098 8.21941 1.92769 8.36755 2.26866 8.36824Z" fill="white"/>
</svg>
