<svg width="108" height="30" viewBox="0 0 108 30" fill="none" xmlns="http://www.w3.org/2000/svg">
<path d="M4.47905 15.897C3.5856 17.043 2.22626 17.709 0.787299 17.709H0.238843C0.0825631 16.83 0 15.924 0 15C0 6.71699 6.6021 0 14.7434 0C20.4432 0 25.3882 3.291 27.8415 8.10899H27.1574C25.7214 8.10899 24.362 8.77499 23.4656 9.92099L18.1374 16.737C17.8867 17.058 17.3795 16.896 17.3501 16.488L17.0051 11.589C16.7367 7.76999 11.9982 6.27599 9.65694 9.27299L4.47905 15.897Z" fill="white"/>
<path d="M25.5978 14.421C26.4913 13.275 27.8506 12.609 29.2896 12.609H29.3014C29.4223 13.389 29.4871 14.187 29.4871 15C29.4871 23.283 22.885 30 14.7437 30C9.17071 30 4.31718 26.853 1.81375 22.209H2.9195C4.35551 22.209 5.71486 21.543 6.61126 20.397L11.9395 13.581C12.1902 13.26 12.6973 13.422 12.7268 13.83L13.0718 18.729C13.3402 22.548 18.0787 24.042 20.4199 21.045L25.5978 14.421Z" fill="white"/>
<path fill-rule="evenodd" clip-rule="evenodd" d="M62.1358 17.4243C62.1358 20.0757 63.6908 21.4526 66.0089 21.4526C68.3124 21.4526 69.8675 20.0464 69.8675 17.4243V4.81203H74.0428V17.8931C74.0428 22.3022 70.904 25.188 66.0089 25.188C61.0991 25.188 57.9748 22.3022 57.9748 17.8931V4.81203H62.1358V17.4243ZM41.4034 12.1963V24.8086H37.4871V4.81351H40.8995L49.279 17.3232H49.4518V4.81351H53.368V24.8086H49.9701L41.5761 12.1963H41.4034ZM82.3934 24.8071V11.9751H82.5951L87.1016 22.0239H89.7077L94.1997 11.9751H94.4014V24.8071H98.1592V4.81203H93.9263L88.4981 16.9263H88.3542L82.9407 4.81203H78.679V24.8071H82.3934ZM107.172 4.81203V24.8071H102.997V4.81203H107.172Z" fill="white"/>
</svg>
